<mxfile host="app.diagrams.net" modified="2020-12-16T18:52:23.696Z" agent="5.0 (Windows NT 10.0; Win64; x64) AppleWebKit/537.36 (KHTML, like Gecko) Chrome/87.0.4280.88 Safari/537.36" etag="TSyiNK4hSFWm0qjcfZAG" version="14.0.4" type="github">
  <diagram id="6z4DxSVcXacAATlt-kro" name="Page-1">
    <mxGraphModel dx="868" dy="520" grid="1" gridSize="10" guides="1" tooltips="1" connect="1" arrows="1" fold="1" page="1" pageScale="1" pageWidth="827" pageHeight="1169" math="0" shadow="0">
      <root>
        <mxCell id="0" />
        <mxCell id="1" parent="0" />
        <mxCell id="d3T1B6n6kJ9CeZTj5Jjf-3" value="" style="rounded=0;whiteSpace=wrap;html=1;" parent="1" vertex="1">
          <mxGeometry x="80" y="40" width="680" height="660" as="geometry" />
        </mxCell>
        <mxCell id="d3T1B6n6kJ9CeZTj5Jjf-4" value="" style="rounded=0;whiteSpace=wrap;html=1;fillColor=#60a917;strokeColor=#2D7600;fontColor=#ffffff;" parent="1" vertex="1">
          <mxGeometry x="80" y="40" width="160" height="80" as="geometry" />
        </mxCell>
        <mxCell id="d3T1B6n6kJ9CeZTj5Jjf-5" value="" style="rounded=0;whiteSpace=wrap;html=1;" parent="1" vertex="1">
          <mxGeometry x="240" y="40" width="520" height="40" as="geometry" />
        </mxCell>
        <mxCell id="d3T1B6n6kJ9CeZTj5Jjf-6" value="" style="rounded=0;whiteSpace=wrap;html=1;" parent="1" vertex="1">
          <mxGeometry x="80" y="120" width="160" height="360" as="geometry" />
        </mxCell>
        <mxCell id="d3T1B6n6kJ9CeZTj5Jjf-7" value="" style="rounded=1;whiteSpace=wrap;html=1;fillColor=#fff2cc;strokeColor=#d6b656;" parent="1" vertex="1">
          <mxGeometry x="560" y="40" width="160" height="40" as="geometry" />
        </mxCell>
        <mxCell id="d3T1B6n6kJ9CeZTj5Jjf-8" value="" style="rounded=0;whiteSpace=wrap;html=1;fillColor=#d5e8d4;strokeColor=#82b366;" parent="1" vertex="1">
          <mxGeometry x="80" y="120" width="160" height="60" as="geometry" />
        </mxCell>
        <mxCell id="d3T1B6n6kJ9CeZTj5Jjf-9" value="" style="rounded=0;whiteSpace=wrap;html=1;fillColor=#fff2cc;strokeColor=#d6b656;" parent="1" vertex="1">
          <mxGeometry x="80" y="180" width="160" height="60" as="geometry" />
        </mxCell>
        <mxCell id="d3T1B6n6kJ9CeZTj5Jjf-10" value="" style="rounded=0;whiteSpace=wrap;html=1;fillColor=#fff2cc;strokeColor=#d6b656;" parent="1" vertex="1">
          <mxGeometry x="80" y="240" width="160" height="60" as="geometry" />
        </mxCell>
        <mxCell id="d3T1B6n6kJ9CeZTj5Jjf-11" value="" style="rounded=0;whiteSpace=wrap;html=1;fillColor=#d5e8d4;strokeColor=#82b366;" parent="1" vertex="1">
          <mxGeometry x="80" y="300" width="160" height="60" as="geometry" />
        </mxCell>
        <mxCell id="d3T1B6n6kJ9CeZTj5Jjf-12" value="" style="rounded=0;whiteSpace=wrap;html=1;fillColor=#d5e8d4;strokeColor=#82b366;" parent="1" vertex="1">
          <mxGeometry x="80" y="360" width="160" height="60" as="geometry" />
        </mxCell>
        <mxCell id="d3T1B6n6kJ9CeZTj5Jjf-13" value="" style="rounded=0;whiteSpace=wrap;html=1;fillColor=#d5e8d4;strokeColor=#82b366;" parent="1" vertex="1">
          <mxGeometry x="80" y="420" width="160" height="60" as="geometry" />
        </mxCell>
        <mxCell id="d3T1B6n6kJ9CeZTj5Jjf-14" value="" style="rounded=0;whiteSpace=wrap;html=1;" parent="1" vertex="1">
          <mxGeometry x="280" y="120" width="440" height="180" as="geometry" />
        </mxCell>
        <mxCell id="d3T1B6n6kJ9CeZTj5Jjf-15" style="edgeStyle=orthogonalEdgeStyle;rounded=0;orthogonalLoop=1;jettySize=auto;html=1;exitX=0.5;exitY=1;exitDx=0;exitDy=0;" parent="1" source="d3T1B6n6kJ9CeZTj5Jjf-14" target="d3T1B6n6kJ9CeZTj5Jjf-14" edge="1">
          <mxGeometry relative="1" as="geometry" />
        </mxCell>
        <mxCell id="d3T1B6n6kJ9CeZTj5Jjf-23" value="" style="rounded=0;whiteSpace=wrap;html=1;dashed=1;" parent="1" vertex="1">
          <mxGeometry x="294" y="130" width="416" height="160" as="geometry" />
        </mxCell>
        <mxCell id="d3T1B6n6kJ9CeZTj5Jjf-24" value="Drag Here" style="text;html=1;fillColor=none;align=center;verticalAlign=middle;whiteSpace=wrap;rounded=0;dashed=1;strokeColor=#000000;" parent="1" vertex="1">
          <mxGeometry x="418.25" y="180" width="167.5" height="60" as="geometry" />
        </mxCell>
        <mxCell id="d3T1B6n6kJ9CeZTj5Jjf-25" value="&lt;h1&gt;&lt;font style=&quot;font-size: 30px&quot;&gt;Digigammon?&lt;/font&gt;&lt;/h1&gt;&lt;p style=&quot;font-size: 16px&quot;&gt;&lt;font style=&quot;font-size: 16px&quot;&gt;Lorem ipsum dolor sit amet, consectetur adipisicing elit, sed do eiusmod tempor incididunt ut labore et dolore magna aliqua.&lt;/font&gt;&lt;/p&gt;" style="text;html=1;strokeColor=none;fillColor=none;spacing=5;spacingTop=-20;whiteSpace=wrap;overflow=hidden;rounded=0;dashed=1;" parent="1" vertex="1">
          <mxGeometry x="280" y="330" width="220" height="160" as="geometry" />
        </mxCell>
        <mxCell id="d3T1B6n6kJ9CeZTj5Jjf-26" value="" style="rounded=0;whiteSpace=wrap;html=1;strokeColor=#000000;" parent="1" vertex="1">
          <mxGeometry x="580" y="320" width="80" height="70" as="geometry" />
        </mxCell>
        <mxCell id="d3T1B6n6kJ9CeZTj5Jjf-27" value="" style="rounded=0;whiteSpace=wrap;html=1;strokeColor=#000000;" parent="1" vertex="1">
          <mxGeometry x="590" y="325" width="60" height="60" as="geometry" />
        </mxCell>
        <mxCell id="d3T1B6n6kJ9CeZTj5Jjf-28" value="PC" style="text;html=1;strokeColor=none;fillColor=none;align=center;verticalAlign=middle;whiteSpace=wrap;rounded=0;dashed=1;" parent="1" vertex="1">
          <mxGeometry x="600" y="345" width="40" height="20" as="geometry" />
        </mxCell>
        <mxCell id="d3T1B6n6kJ9CeZTj5Jjf-29" value="" style="rounded=0;whiteSpace=wrap;html=1;strokeColor=#000000;" parent="1" vertex="1">
          <mxGeometry x="615" y="390" width="10" height="20" as="geometry" />
        </mxCell>
        <mxCell id="d3T1B6n6kJ9CeZTj5Jjf-30" value="" style="ellipse;whiteSpace=wrap;html=1;strokeColor=#000000;" parent="1" vertex="1">
          <mxGeometry x="610" y="410" width="20" height="10" as="geometry" />
        </mxCell>
        <mxCell id="d3T1B6n6kJ9CeZTj5Jjf-31" value="" style="rounded=0;whiteSpace=wrap;html=1;strokeColor=#000000;" parent="1" vertex="1">
          <mxGeometry x="515" y="430" width="65" height="40" as="geometry" />
        </mxCell>
        <mxCell id="d3T1B6n6kJ9CeZTj5Jjf-32" value="" style="rounded=0;whiteSpace=wrap;html=1;strokeColor=#000000;" parent="1" vertex="1">
          <mxGeometry x="522.5" y="435" width="50" height="30" as="geometry" />
        </mxCell>
        <mxCell id="d3T1B6n6kJ9CeZTj5Jjf-33" value="TAB" style="text;html=1;strokeColor=none;fillColor=none;align=center;verticalAlign=middle;whiteSpace=wrap;rounded=0;" parent="1" vertex="1">
          <mxGeometry x="527.5" y="440" width="40" height="20" as="geometry" />
        </mxCell>
        <mxCell id="d3T1B6n6kJ9CeZTj5Jjf-34" value="" style="rounded=1;whiteSpace=wrap;html=1;strokeColor=#000000;" parent="1" vertex="1">
          <mxGeometry x="675" y="405" width="35" height="60" as="geometry" />
        </mxCell>
        <mxCell id="d3T1B6n6kJ9CeZTj5Jjf-35" value="TEL" style="text;html=1;strokeColor=none;fillColor=none;align=center;verticalAlign=middle;whiteSpace=wrap;rounded=0;" parent="1" vertex="1">
          <mxGeometry x="672.5" y="425" width="40" height="20" as="geometry" />
        </mxCell>
        <mxCell id="d3T1B6n6kJ9CeZTj5Jjf-38" value="LOGO" style="text;html=1;align=center;verticalAlign=middle;whiteSpace=wrap;rounded=0;" parent="1" vertex="1">
          <mxGeometry x="110" y="50" width="90" height="60" as="geometry" />
        </mxCell>
        <mxCell id="d3T1B6n6kJ9CeZTj5Jjf-39" value="HOMEPAGE" style="text;html=1;strokeColor=none;fillColor=none;align=center;verticalAlign=middle;whiteSpace=wrap;rounded=0;" parent="1" vertex="1">
          <mxGeometry x="110" y="140" width="100" height="20" as="geometry" />
        </mxCell>
        <mxCell id="d3T1B6n6kJ9CeZTj5Jjf-40" value="UPLOAD" style="text;html=1;strokeColor=none;fillColor=none;align=center;verticalAlign=middle;whiteSpace=wrap;rounded=0;" parent="1" vertex="1">
          <mxGeometry x="110" y="200" width="100" height="20" as="geometry" />
        </mxCell>
        <mxCell id="d3T1B6n6kJ9CeZTj5Jjf-41" value="TRANSCRIPT" style="text;html=1;strokeColor=none;fillColor=none;align=center;verticalAlign=middle;whiteSpace=wrap;rounded=0;" parent="1" vertex="1">
          <mxGeometry x="110" y="260" width="90" height="20" as="geometry" />
        </mxCell>
        <mxCell id="d3T1B6n6kJ9CeZTj5Jjf-42" value="CONTACT US" style="text;html=1;strokeColor=none;fillColor=none;align=center;verticalAlign=middle;whiteSpace=wrap;rounded=0;" parent="1" vertex="1">
          <mxGeometry x="110" y="320" width="110" height="20" as="geometry" />
        </mxCell>
        <mxCell id="d3T1B6n6kJ9CeZTj5Jjf-43" value="ABOUT US" style="text;html=1;strokeColor=none;fillColor=none;align=center;verticalAlign=middle;whiteSpace=wrap;rounded=0;" parent="1" vertex="1">
          <mxGeometry x="110" y="380" width="100" height="20" as="geometry" />
        </mxCell>
        <mxCell id="d3T1B6n6kJ9CeZTj5Jjf-44" value="PRODUCTS" style="text;html=1;strokeColor=none;fillColor=none;align=center;verticalAlign=middle;whiteSpace=wrap;rounded=0;" parent="1" vertex="1">
          <mxGeometry x="120" y="440" width="80" height="20" as="geometry" />
        </mxCell>
        <mxCell id="d3T1B6n6kJ9CeZTj5Jjf-45" value="REGISTER / LOGIN" style="text;html=1;strokeColor=none;fillColor=none;align=center;verticalAlign=middle;whiteSpace=wrap;rounded=0;" parent="1" vertex="1">
          <mxGeometry x="580" y="50" width="120" height="20" as="geometry" />
        </mxCell>
      </root>
    </mxGraphModel>
  </diagram>
</mxfile>
